<svg xmlns="http://www.w3.org/2000/svg" viewBox="0 0 93.03 100"><defs><style>.cls-1{fill:#313131;}</style></defs><g id="Capa_2" data-name="Capa 2"><g id="Capa_1-2" data-name="Capa 1"><polygon class="cls-1" points="63.72 19.04 71.21 19.04 71.21 0 27.6 0 27.6 7.49 63.72 7.49 63.72 19.04"/><path class="cls-1" d="M85.54,23.19H43.92v7.49H85.54V74.43A18.08,18.08,0,0,1,51,81.82,17.74,17.74,0,0,1,49.4,75.1h-.22c.67-.09,1.33-.18,2-.32a25.58,25.58,0,0,0,20.06-25v-15H63.72v15a18.07,18.07,0,0,1-36.12.87V43.3a16.33,16.33,0,0,1-2.12.12A18,18,0,0,1,18,9.11v-8a25.45,25.45,0,0,0,2.08,49.21v.15a25.54,25.54,0,0,0,22,24.62h-.16A25.56,25.56,0,0,0,93,74.43V23.19Z"/></g></g></svg>