<svg xmlns="http://www.w3.org/2000/svg" viewBox="0 0 300 100"><defs><style>.cls-1{fill:#313131;}</style></defs><g id="Capa_2" data-name="Capa 2"><g id="Capa_1-2" data-name="Capa 1"><path class="cls-1" d="M11.83,7.51H46.92V19.06H55V3.76A3.79,3.79,0,0,0,51.23,0H11.83A3.83,3.83,0,0,0,8.07,3.76,3.79,3.79,0,0,0,11.83,7.51Z"/><path class="cls-1" d="M74.66,23.21H29.32a3.73,3.73,0,0,0,0,7.45h41V74.44c0,10-8.69,18-19.4,18A19.59,19.59,0,0,1,33.18,81.84a18.09,18.09,0,0,1-1.68-6.73h-.22c.73-.11,1.46-.17,2.13-.33C45.74,72.25,55,62.05,55,49.83v-15H46.92v15c0,10-8.69,18-19.45,18C17,67.88,8.58,60.26,8.07,50.67v-2.8a4.05,4.05,0,0,0-4-4,4.09,4.09,0,0,0-4,4V50.5C.34,63,10.43,73.26,23.49,75.11a23.58,23.58,0,0,0,1.29,7.23C28.36,92.6,38.73,100,51,100c15.14,0,27.47-11.43,27.47-25.56V27A3.79,3.79,0,0,0,74.66,23.21Z"/><path class="cls-1" d="M196.92,32.57a3.95,3.95,0,0,0-7.68,0s0,.17-.06.22L178.36,69.56c-2,6.73-3.58,12.45-4.76,17.21v.11h-.17v-.11c-.39-1.9-1.85-7.62-4.32-17.1L160,34.19l-.11-.56c0-.05,0-.17,0-.22a5.75,5.75,0,0,0-4.26-3.87h-1.85a5.69,5.69,0,0,0-4.26,3.92c0,.06-.06.12-.06.17s0,.23-.06.28l-9.19,35.76c-.62,2.36-1.29,5-2.13,8s-1.51,6.06-2.19,9.14v.11h-.22v-.11c-1.29-5.1-2.86-10.87-4.76-17.21L120.12,32.79a.36.36,0,0,1-.05-.22,3.95,3.95,0,0,0-7.79,1c0,.28,0,.56,0,.78v.06a2.8,2.8,0,0,0,.23.67l17.93,58.3v.11a1.66,1.66,0,0,0,.17.45c.06.17.11.28.17.45a5.51,5.51,0,0,0,10.15,0,5.84,5.84,0,0,0,.33-.84v-.17l9.48-36.1c2-7.79,3.25-13.28,3.81-16.42h.17c.61,3.42,1.9,8.85,3.81,16.42L168,93.33v.11c.06.11.06.17.12.28a.23.23,0,0,0,0,.17c.06.17.11.28.17.45a5.55,5.55,0,0,0,10.2,0,2.72,2.72,0,0,0,.17-.39l.17-.62L196.75,35a2.77,2.77,0,0,0,.22-.67V34.3a3.17,3.17,0,0,0,.06-.78,3,3,0,0,0-.06-.73A.36.36,0,0,1,196.92,32.57Z"/><path class="cls-1" d="M241.7,61.15a20.81,20.81,0,0,0-4.09-7.51,16,16,0,0,0-6.11-4.26A21.5,21.5,0,0,0,223.88,48a22.22,22.22,0,0,0-8.3,1.62,20.66,20.66,0,0,0-7,4.94,24,24,0,0,0-4.88,8.12,32.5,32.5,0,0,0-1.79,11.5,31.74,31.74,0,0,0,1.85,11.49A20.72,20.72,0,0,0,209,93.39a20.94,20.94,0,0,0,7.9,4.31A36.37,36.37,0,0,0,226.63,99a42.54,42.54,0,0,0,8.24-.73,30,30,0,0,0,3.81-1,1.84,1.84,0,0,0,.61-.22,3.21,3.21,0,0,0-1.23-6.17,2.54,2.54,0,0,0-.67.06c-.84.22-1.74.39-2.58.56a35.15,35.15,0,0,1-7.17.62,25.65,25.65,0,0,1-7-.9A14.66,14.66,0,0,1,215,88.28,13.07,13.07,0,0,1,211.16,83a19.17,19.17,0,0,1-1.41-7.85H239.8a3.42,3.42,0,0,0,3.42-3.31v-.11a2.5,2.5,0,0,0-.06-.67A33.72,33.72,0,0,0,241.7,61.15Zm-31.55,7.24a16.3,16.3,0,0,1,4.14-9.59,13.87,13.87,0,0,1,4.1-2.91,12.83,12.83,0,0,1,5.1-1.07,10.79,10.79,0,0,1,4.93,1.07A9.69,9.69,0,0,1,232,58.74a13.85,13.85,0,0,1,2.19,4.32,18.17,18.17,0,0,1,.73,5.33Z"/><path class="cls-1" d="M299.05,64.07a24.23,24.23,0,0,0-2.64-6.45A16.8,16.8,0,0,0,292.66,53a21.58,21.58,0,0,0-4.43-2.92,17.4,17.4,0,0,0-4.71-1.57,21.48,21.48,0,0,0-4.43-.5,18.47,18.47,0,0,0-7.85,1.57,17.88,17.88,0,0,0-6.1,4.26H265v-26a4,4,0,0,0-4-4,4,4,0,0,0-3.92,4V93.78A3.9,3.9,0,0,0,261,97.7a3.94,3.94,0,0,0,2.25-.67A4,4,0,0,0,265,93.78V92.49a16.68,16.68,0,0,0,1.29,1.62A13.63,13.63,0,0,0,269,96.3a17,17,0,0,0,4,1.91,18.2,18.2,0,0,0,5.5.78,20.51,20.51,0,0,0,8-1.57,19.22,19.22,0,0,0,6.89-4.82,23,23,0,0,0,4.82-8.18A33.25,33.25,0,0,0,300,72.7,36.63,36.63,0,0,0,299.05,64.07ZM290.81,81a18,18,0,0,1-2.69,6,13.07,13.07,0,0,1-4.49,3.92,13.66,13.66,0,0,1-6.22,1.34,13,13,0,0,1-4.26-.67,16.74,16.74,0,0,1-3.59-1.68,17.78,17.78,0,0,1-2.69-2.13A14.93,14.93,0,0,1,265,85.65V60.31a21.12,21.12,0,0,1,5.72-4,16,16,0,0,1,6.9-1.51,15.27,15.27,0,0,1,4.76.79,11.33,11.33,0,0,1,4.54,2.74A15.29,15.29,0,0,1,290.42,64a27.54,27.54,0,0,1,1.34,9.36A30.36,30.36,0,0,1,290.81,81Z"/><path class="cls-1" d="M106.89,68.55H94.39a4,4,0,0,0,0,8h12.5a4,4,0,0,0,0-8Z"/></g></g></svg>